<svg width="24" height="24" viewBox="0 0 24 24" fill="none" xmlns="http://www.w3.org/2000/svg">
<path d="M9.37907 3.833L9.21707 2.88C9.14707 2.46 9.11107 2.25 8.95907 2.125C8.80707 2 8.58707 2 8.14607 2H7.85607C7.41607 2 7.19607 2 7.04407 2.125C6.89207 2.25 6.85607 2.46 6.78507 2.88L6.62407 3.833C6.28642 3.96583 5.96954 4.14632 5.68307 4.369L4.78307 4.037C4.36707 3.884 4.16007 3.807 3.97107 3.873C3.78207 3.939 3.67107 4.126 3.45207 4.5L3.29207 4.773C3.07807 5.137 2.97207 5.319 3.00707 5.506C3.04107 5.693 3.20707 5.828 3.53907 6.096L4.30607 6.718C4.25461 7.07147 4.25461 7.43053 4.30607 7.784L3.54107 8.404C3.20907 8.673 3.04407 8.807 3.00907 8.994C2.97407 9.181 3.08007 9.364 3.29407 9.727L3.45407 10.001C3.67407 10.375 3.78407 10.561 3.97307 10.628C4.16207 10.693 4.36907 10.617 4.78507 10.464L5.68407 10.132C5.96707 10.352 6.28407 10.534 6.62407 10.667L6.78507 11.62C6.85607 12.04 6.89207 12.25 7.04407 12.375C7.19607 12.5 7.41607 12.5 7.85607 12.5H8.14607C8.58607 12.5 8.80607 12.5 8.95907 12.375C9.11207 12.25 9.14607 12.04 9.21707 11.62L9.37907 10.667C9.71907 10.534 10.0351 10.353 10.3181 10.133L11.2151 10.463C11.6311 10.617 11.8381 10.693 12.0271 10.628C12.2171 10.562 12.3271 10.375 12.5461 10.001L12.7061 9.727C12.9191 9.363 13.0261 9.181 12.9911 8.994C12.9571 8.807 12.7911 8.673 12.4591 8.404L11.6961 7.786C11.7479 7.43122 11.7479 7.07078 11.6961 6.716L12.4611 6.096C12.7931 5.828 12.9591 5.693 12.9931 5.506C13.0271 5.319 12.9221 5.137 12.7081 4.773L12.5481 4.5C12.3281 4.126 12.2181 3.939 12.0291 3.873C11.8401 3.807 11.6331 3.883 11.2171 4.037L10.3191 4.368C10.0361 4.148 9.71907 3.966 9.37907 3.833ZM17.3791 13.333L17.2171 12.38C17.1471 11.96 17.1101 11.75 16.9591 11.625C16.8081 11.5 16.5871 11.5 16.1461 11.5H15.8561C15.4161 11.5 15.1961 11.5 15.0441 11.625C14.8921 11.75 14.8561 11.96 14.7851 12.38L14.6241 13.333C14.2864 13.4658 13.9695 13.6463 13.6831 13.869L12.7831 13.537C12.3671 13.384 12.1601 13.307 11.9711 13.373C11.7821 13.439 11.6711 13.626 11.4521 14L11.2921 14.273C11.0781 14.637 10.9721 14.819 11.0071 15.006C11.0411 15.194 11.2071 15.328 11.5391 15.596L12.3061 16.218C12.2546 16.5715 12.2546 16.9305 12.3061 17.284L11.5411 17.904C11.2091 18.173 11.0431 18.307 11.0091 18.494C10.9751 18.681 11.0811 18.864 11.2941 19.227L11.4541 19.501C11.6741 19.875 11.7841 20.061 11.9731 20.128C12.1621 20.193 12.3691 20.117 12.7851 19.964L13.6841 19.632C13.9671 19.852 14.2841 20.034 14.6241 20.167L14.7851 21.12C14.8561 21.54 14.8921 21.75 15.0441 21.875C15.1961 22 15.4161 22 15.8561 22H16.1461C16.5861 22 16.8061 22 16.9591 21.875C17.1101 21.75 17.1461 21.54 17.2171 21.12L17.3791 20.167C17.7191 20.034 18.0351 19.853 18.3181 19.633L19.2151 19.963C19.6311 20.117 19.8381 20.193 20.0271 20.128C20.2171 20.062 20.3271 19.875 20.5451 19.501L20.7061 19.227C20.9191 18.863 21.0261 18.681 20.9911 18.494C20.9561 18.307 20.7911 18.173 20.4591 17.904L19.6961 17.286C19.7479 16.9312 19.7479 16.5708 19.6961 16.216L20.4611 15.596C20.7931 15.328 20.9591 15.194 20.9941 15.006C21.0281 14.819 20.9221 14.637 20.7081 14.273L20.5481 14C20.3281 13.626 20.2181 13.439 20.0291 13.373C19.8401 13.307 19.6331 13.383 19.2171 13.537L18.3191 13.868C18.0361 13.648 17.7191 13.466 17.3791 13.333Z" stroke="black" stroke-width="1.5" stroke-linejoin="round"/>
<path d="M8.75 7.25C8.75 7.44891 8.67098 7.63968 8.53033 7.78033C8.38968 7.92098 8.19891 8 8 8C7.80109 8 7.61032 7.92098 7.46967 7.78033C7.32902 7.63968 7.25 7.44891 7.25 7.25C7.25 7.05109 7.32902 6.86032 7.46967 6.71967C7.61032 6.57902 7.80109 6.5 8 6.5C8.19891 6.5 8.38968 6.57902 8.53033 6.71967C8.67098 6.86032 8.75 7.05109 8.75 7.25ZM16.75 16.75C16.75 16.9489 16.671 17.1397 16.5303 17.2803C16.3897 17.421 16.1989 17.5 16 17.5C15.8011 17.5 15.6103 17.421 15.4697 17.2803C15.329 17.1397 15.25 16.9489 15.25 16.75C15.25 16.5511 15.329 16.3603 15.4697 16.2197C15.6103 16.079 15.8011 16 16 16C16.1989 16 16.3897 16.079 16.5303 16.2197C16.671 16.3603 16.75 16.5511 16.75 16.75Z" stroke="black" stroke-width="1.5" stroke-linejoin="round"/>
</svg>
