<svg width="24" height="24" viewBox="0 0 24 24" fill="none" xmlns="http://www.w3.org/2000/svg">
<path d="M18 13.4167V22.5833" stroke="black" stroke-width="2" stroke-linecap="round" stroke-linejoin="round"/>
<path d="M20.0833 15.0833H16.9583C16.5716 15.0833 16.2006 15.237 15.9271 15.5105C15.6536 15.784 15.5 16.1549 15.5 16.5417C15.5 16.9284 15.6536 17.2994 15.9271 17.5729C16.2006 17.8463 16.5716 18 16.9583 18H19.0417C19.4284 18 19.7994 18.1536 20.0729 18.4271C20.3464 18.7006 20.5 19.0716 20.5 19.4583C20.5 19.8451 20.3464 20.216 20.0729 20.4895C19.7994 20.763 19.4284 20.9167 19.0417 20.9167H15.5" stroke="black" stroke-width="2" stroke-linecap="round" stroke-linejoin="round"/>
<path d="M8 5H6C5.46957 5 4.96086 5.21071 4.58579 5.58579C4.21071 5.96086 4 6.46957 4 7V19C4 19.5304 4.21071 20.0391 4.58579 20.4142C4.96086 20.7893 5.46957 21 6 21H11.697M18 11V7C18 6.46957 17.7893 5.96086 17.4142 5.58579C17.0391 5.21071 16.5304 5 16 5H14" stroke="black" stroke-width="2" stroke-linecap="round" stroke-linejoin="round"/>
<path d="M8 11H12M8 15H11M8 5C8 4.46957 8.21071 3.96086 8.58579 3.58579C8.96086 3.21071 9.46957 3 10 3H12C12.5304 3 13.0391 3.21071 13.4142 3.58579C13.7893 3.96086 14 4.46957 14 5C14 5.53043 13.7893 6.03914 13.4142 6.41421C13.0391 6.78929 12.5304 7 12 7H10C9.46957 7 8.96086 6.78929 8.58579 6.41421C8.21071 6.03914 8 5.53043 8 5Z" stroke="black" stroke-width="2" stroke-linecap="round" stroke-linejoin="round"/>
<defs>
<clipPath id="clip0_728_2068">
<rect width="10" height="10" fill="white" transform="translate(13 13)"/>
</clipPath>
</defs>
</svg>
