<svg width="24" height="24" viewBox="0 0 24 24" fill="none" xmlns="http://www.w3.org/2000/svg">
<path d="M3 3H9.75V9.75H3V3ZM14.25 3H21V9.75H14.25V3ZM3 14.25H9.75V21H3V14.25ZM14.25 17.625C14.25 18.5201 14.6056 19.3786 15.2385 20.0115C15.8714 20.6444 16.7299 21 17.625 21C18.5201 21 19.3786 20.6444 20.0115 20.0115C20.6444 19.3786 21 18.5201 21 17.625C21 16.7299 20.6444 15.8714 20.0115 15.2385C19.3786 14.6056 18.5201 14.25 17.625 14.25C16.7299 14.25 15.8714 14.6056 15.2385 15.2385C14.6056 15.8714 14.25 16.7299 14.25 17.625Z" stroke="black" stroke-width="2" stroke-linecap="round" stroke-linejoin="round"/>
</svg>
