<svg width="24" height="24" viewBox="0 0 24 24" fill="none" xmlns="http://www.w3.org/2000/svg">
<path d="M15.75 3C14.4053 3 13.1865 3.252 12.234 3.72675C11.2823 4.2015 10.5 4.97475 10.5 6V9C10.5 9.09675 10.5322 9.1905 10.5472 9.28125C9.79652 9.09048 9.02458 8.99598 8.25 9C6.90525 9 5.6865 9.252 4.734 9.72675C3.78225 10.2015 3 10.9748 3 12V18C3 19.0252 3.78225 19.7985 4.73475 20.2733C5.6865 20.748 6.90525 21 8.25 21C9.59475 21 10.8135 20.748 11.766 20.2733C12.717 19.7985 13.5 19.0252 13.5 18V17.6955C14.2337 17.8938 14.99 17.9962 15.75 18C17.0947 18 18.3135 17.748 19.266 17.2733C20.217 16.7985 21 16.0252 21 15V6C21 4.97475 20.2178 4.2015 19.2653 3.72675C18.3143 3.252 17.0955 3 15.75 3ZM15.75 4.5C16.8923 4.5 17.9093 4.746 18.5858 5.08575C19.263 5.4255 19.5 5.78325 19.5 6C19.5 6.2175 19.263 6.5745 18.5858 6.91425C17.91 7.254 16.8923 7.5 15.75 7.5C14.6077 7.5 13.5907 7.254 12.9142 6.91425C12.237 6.5745 12 6.21675 12 6C12 5.7825 12.237 5.4255 12.9142 5.08575C13.59 4.746 14.6077 4.5 15.75 4.5ZM12 8.133C12.0787 8.1765 12.1522 8.23275 12.2347 8.27325C13.1865 8.748 14.4053 9 15.75 9C17.0947 9 18.3135 8.748 19.266 8.27325C19.3477 8.23275 19.4213 8.1765 19.5 8.133V9C19.5 9.2175 19.263 9.5745 18.5858 9.91425C17.9093 10.254 16.8923 10.5 15.75 10.5C14.6077 10.5 13.5907 10.254 12.9142 9.91425C12.237 9.5745 12 9.21675 12 9V8.133ZM8.25 10.5C9.39225 10.5 10.4093 10.746 11.0858 11.0858C11.763 11.4255 12 11.7832 12 12C12 12.2175 11.763 12.5745 11.0858 12.9142C10.4093 13.254 9.39225 13.5 8.25 13.5C7.10775 13.5 6.09075 13.254 5.41425 12.9142C4.737 12.5745 4.5 12.2168 4.5 12C4.5 11.7825 4.737 11.4255 5.41425 11.0858C6.09 10.746 7.10775 10.5 8.25 10.5ZM19.5 11.133V12C19.5 12.2175 19.263 12.5745 18.5858 12.9142C17.9093 13.254 16.8923 13.5 15.75 13.5C14.986 13.5041 14.2263 13.3854 13.5 13.1483V12C13.5 11.9033 13.4678 11.8095 13.4528 11.7188C14.1503 11.9002 14.9235 12 15.75 12C17.0947 12 18.3135 11.748 19.266 11.2733C19.3477 11.2328 19.4213 11.1765 19.5 11.133ZM4.5 14.133C4.57875 14.1765 4.65225 14.2328 4.73475 14.2733C5.6865 14.748 6.90525 15 8.25 15C9.59475 15 10.8135 14.748 11.766 14.2733C11.8477 14.2328 11.9213 14.1765 12 14.133V15C12 15.2175 11.763 15.5745 11.0858 15.9142C10.4093 16.254 9.39225 16.5 8.25 16.5C7.10775 16.5 6.09075 16.254 5.41425 15.9142C4.737 15.5745 4.5 15.2168 4.5 15V14.133ZM19.5 14.133V15C19.5 15.2175 19.263 15.5745 18.5858 15.9142C17.9093 16.254 16.8923 16.5 15.75 16.5C14.8973 16.5 14.127 16.38 13.5 16.1715V14.7188C14.1885 14.9002 14.9385 15 15.75 15C17.0947 15 18.3135 14.748 19.266 14.2733C19.3477 14.2328 19.4213 14.1765 19.5 14.133ZM4.5 17.133C4.57875 17.1765 4.65225 17.2328 4.73475 17.2733C5.6865 17.748 6.90525 18 8.25 18C9.59475 18 10.8135 17.748 11.766 17.2733C11.8477 17.2328 11.9213 17.1765 12 17.133V18C12 18.2175 11.763 18.5745 11.0858 18.9142C10.4093 19.254 9.39225 19.5 8.25 19.5C7.10775 19.5 6.09075 19.254 5.41425 18.9142C4.737 18.5745 4.5 18.2168 4.5 18V17.133Z" fill="black"/>
</svg>
