<svg width="25" height="25" viewBox="0 0 25 25" fill="none" xmlns="http://www.w3.org/2000/svg">
<g clip-path="url(#clip0_1226_2126)">
<path d="M18.0694 18.3278C16.36 19.6308 14.2785 20.3526 12.1294 20.3878C5.12939 20.3878 1.12939 12.3878 1.12939 12.3878C2.37328 10.0697 4.09853 8.04439 6.18939 6.44778M10.0294 4.62778C10.7177 4.46666 11.4225 4.38612 12.1294 4.38778C19.1294 4.38778 23.1294 12.3878 23.1294 12.3878C22.5224 13.5234 21.7985 14.5925 20.9694 15.5778M14.2494 14.5078C13.9747 14.8025 13.6435 15.0389 13.2755 15.2029C12.9075 15.3669 12.5103 15.455 12.1075 15.4621C11.7047 15.4693 11.3046 15.3952 10.931 15.2443C10.5575 15.0934 10.2181 14.8688 9.93324 14.5839C9.64837 14.2991 9.42379 13.9597 9.2729 13.5862C9.12202 13.2126 9.04792 12.8125 9.05503 12.4097C9.06214 12.0069 9.1503 11.6096 9.31427 11.2416C9.47824 10.8736 9.71465 10.5424 10.0094 10.2678" stroke-width="2" stroke-linecap="round" stroke-linejoin="round"/>
<path d="M1.12939 1.38776L23.1294 23.3878" stroke-width="2" stroke-linecap="round" stroke-linejoin="round"/>
</g>
<defs>
<clipPath id="clip0_1226_2126">
<rect width="24" height="24" fill="white" transform="translate(0.129395 0.387756)"/>
</clipPath>
</defs>
</svg>
