<svg width="25" height="25" viewBox="0 0 25 25" fill="none" xmlns="http://www.w3.org/2000/svg">
<g clip-path="url(#clip0_1227_751)">
<path d="M21.8378 14C22.3901 14 22.8378 13.5523 22.8378 13C22.8378 12.4477 22.3901 12 21.8378 12C21.2855 12 20.8378 12.4477 20.8378 13C20.8378 13.5523 21.2855 14 21.8378 14Z" stroke-width="4" stroke-linecap="round" stroke-linejoin="round"/>
<path d="M12.8378 14C13.3901 14 13.8378 13.5523 13.8378 13C13.8378 12.4477 13.3901 12 12.8378 12C12.2855 12 11.8378 12.4477 11.8378 13C11.8378 13.5523 12.2855 14 12.8378 14Z" stroke-width="4" stroke-linecap="round" stroke-linejoin="round"/>
<path d="M3.83777 14C4.39005 14 4.83777 13.5523 4.83777 13C4.83777 12.4477 4.39005 12 3.83777 12C3.28548 12 2.83777 12.4477 2.83777 13C2.83777 13.5523 3.28548 14 3.83777 14Z" stroke-width="4" stroke-linecap="round" stroke-linejoin="round"/>
</g>
<defs>
<clipPath id="clip0_1227_751">
<rect width="24" height="24" fill="white" transform="translate(0.837769 0.972973)"/>
</clipPath>
</defs>
</svg>
