<svg width="24" height="24" viewBox="0 0 24 24" fill="none" xmlns="http://www.w3.org/2000/svg">
<path d="M11 15H13C14.1046 15 15 14.1046 15 13C15 11.8954 14.1046 11 13 11H10C9.4 11 8.9 11.2 8.6 11.6L3 17" stroke="currentColor" stroke-width="2" stroke-linecap="round" stroke-linejoin="round"/>
<path d="M7 21L8.6 19.6C8.9 19.2 9.4 19 10 19H14C15.1 19 16.1 18.6 16.8 17.8L21.4 13.4C21.9 12.9 22 12.1 21.6 11.5C21.1 10.8 20.2 10.6 19.5 11.1L15.3 15" stroke="currentColor" stroke-width="2" stroke-linecap="round" stroke-linejoin="round"/>
<path d="M2 16L8 22" stroke="currentColor" stroke-width="2" stroke-linecap="round" stroke-linejoin="round"/>
<circle cx="16" cy="9" r="2.9" stroke="currentColor" stroke-width="2" stroke-linecap="round" stroke-linejoin="round"/>
<circle cx="6" cy="5" r="3" stroke="currentColor" stroke-width="2" stroke-linecap="round" stroke-linejoin="round"/>
</svg>
