<svg width="24" height="24" viewBox="0 0 24 24" fill="none" xmlns="http://www.w3.org/2000/svg">
<path d="M2 12.026C2 17.172 5.867 21.413 10.847 21.986C11.582 22.071 12.294 21.758 12.817 21.233C13.1309 20.9181 13.3071 20.4916 13.3071 20.047C13.3071 19.6024 13.1309 19.1759 12.817 18.861C12.294 18.336 11.867 17.554 12.262 16.927C13.838 14.419 22 20.178 22 12.027C22 6.488 17.523 2 12 2C6.477 2 2 6.489 2 12.026Z" stroke="#000000" stroke-width="1.5"/>
<path d="M17.5 12.25C17.9142 12.25 18.25 11.9142 18.25 11.5C18.25 11.0858 17.9142 10.75 17.5 10.75C17.0858 10.75 16.75 11.0858 16.75 11.5C16.75 11.9142 17.0858 12.25 17.5 12.25Z" stroke="#000000" stroke-width="1.5"/>
<path d="M6.5 12.25C6.91421 12.25 7.25 11.9142 7.25 11.5C7.25 11.0858 6.91421 10.75 6.5 10.75C6.08579 10.75 5.75 11.0858 5.75 11.5C5.75 11.9142 6.08579 12.25 6.5 12.25Z" stroke="#000000" stroke-width="1.5"/>
<path d="M10.335 7C10.335 7.19891 10.2559 7.38968 10.1153 7.53033C9.97464 7.67098 9.78387 7.75 9.58496 7.75C9.38605 7.75 9.19528 7.67098 9.05463 7.53033C8.91398 7.38968 8.83496 7.19891 8.83496 7C8.83496 6.80109 8.91398 6.61032 9.05463 6.46967C9.19528 6.32902 9.38605 6.25 9.58496 6.25C9.78387 6.25 9.97464 6.32902 10.1153 6.46967C10.2559 6.61032 10.335 6.80109 10.335 7ZM15.25 7C15.25 7.19891 15.1709 7.38968 15.0303 7.53033C14.8896 7.67098 14.6989 7.75 14.5 7.75C14.301 7.75 14.1103 7.67098 13.9696 7.53033C13.829 7.38968 13.75 7.19891 13.75 7C13.75 6.80109 13.829 6.61032 13.9696 6.46967C14.1103 6.32902 14.301 6.25 14.5 6.25C14.6989 6.25 14.8896 6.32902 15.0303 6.46967C15.1709 6.61032 15.25 6.80109 15.25 7Z" stroke="#000000" stroke-width="1.5"/>
</svg>
