<svg width="24" height="24" viewBox="0 0 24 24" fill="none" xmlns="http://www.w3.org/2000/svg">
<path d="M3.7515 12C3.7515 10.3683 4.23535 8.77326 5.14188 7.41655C6.0484 6.05984 7.33687 5.00242 8.84436 4.378C10.3519 3.75358 12.0107 3.5902 13.611 3.90853C15.2113 4.22685 16.6813 5.01259 17.8351 6.16637C18.9889 7.32016 19.7747 8.79017 20.093 10.3905C20.4113 11.9909 20.2479 13.6497 19.6235 15.1571C18.9991 16.6646 17.9417 17.9531 16.585 18.8596C15.2282 19.7662 13.6332 20.25 12.0015 20.25C11.7031 20.2498 11.4169 20.3681 11.2058 20.579C10.9947 20.7898 10.8759 21.0759 10.8758 21.3743C10.8756 21.6726 10.9939 21.9589 11.2047 22.17C11.4156 22.3811 11.7016 22.4998 12 22.5C14.0767 22.5 16.1068 21.8842 17.8335 20.7304C19.5602 19.5767 20.906 17.9368 21.7007 16.0182C22.4955 14.0996 22.7034 11.9884 22.2982 9.95156C21.8931 7.91476 20.8931 6.04383 19.4246 4.57538C17.9562 3.10693 16.0852 2.1069 14.0484 1.70176C12.0116 1.29661 9.90045 1.50455 7.98182 2.29927C6.0632 3.09399 4.42332 4.4398 3.26957 6.16652C2.11581 7.89323 1.5 9.9233 1.5 12C1.5 12.2986 1.61861 12.5849 1.82972 12.796C2.04084 13.0071 2.32718 13.1258 2.62575 13.1258C2.92432 13.1258 3.21066 13.0071 3.42178 12.796C3.63289 12.5849 3.7515 12.2986 3.7515 12Z" fill="black"/>
</svg>
