<?xml version="1.0" encoding="utf-8"?>
<!-- Generator: Adobe Illustrator 16.0.0, SVG Export Plug-In . SVG Version: 6.00 Build 0)  -->
<!DOCTYPE svg PUBLIC "-//W3C//DTD SVG 1.1//EN" "http://www.w3.org/Graphics/SVG/1.1/DTD/svg11.dtd">
<svg version="1.1" id="Layer_1" xmlns="http://www.w3.org/2000/svg" xmlns:xlink="http://www.w3.org/1999/xlink" x="0px" y="0px"
	 width="16px" height="16px" viewBox="0 0 16 16" enable-background="new 0 0 16 16" xml:space="preserve">
<g>
	<g>
		<linearGradient id="SVGID_1_" gradientUnits="userSpaceOnUse" x1="8" y1="1" x2="8" y2="15.0005">
			<stop  offset="0" style="stop-color:#055086"/>
			<stop  offset="1" style="stop-color:#133E5D"/>
		</linearGradient>
		<path fill="url(#SVGID_1_)" d="M15,14c0,0.55-0.45,1-1,1H2c-0.55,0-1-0.45-1-1V2c0-0.55,0.45-1,1-1h12c0.55,0,1,0.45,1,1V14z"/>
	</g>
	<rect x="10" y="7" fill="#FFFFFF" width="3" height="2"/>
	<path fill="#FFFFFF" d="M6,3v9c0,0.55,0.45,1,1,1h2V3H6z"/>
	<path fill="#FFFFFF" d="M4,3C3.45,3,3,3.45,3,4v1h1h1V4V3H4z"/>
	<path fill="#FFFFFF" d="M12,3h-2v1v1h1h1h1V4C13,3.45,12.55,3,12,3z"/>
	<path fill="#FFFFFF" d="M12,11h-1h-1v1v1h2c0.55,0,1-0.45,1-1v-1H12z"/>
</g>
</svg>
