<svg width="24" height="24" viewBox="0 0 24 24" fill="none" xmlns="http://www.w3.org/2000/svg">
<path d="M3.193 3.72602C3.23416 3.25336 3.45159 2.81348 3.8021 2.49372C4.15261 2.17396 4.61056 1.99773 5.085 2.00002C5.535 2.00002 5.951 2.15602 6.278 2.41702C6.62803 2.14674 7.05777 2.0001 7.5 2.00002C7.96 2.00002 8.384 2.15502 8.722 2.41702C9.06044 2.14597 9.4814 1.99882 9.915 2.00002C10.891 2.00002 11.722 2.73702 11.807 3.72602C11.891 4.70102 12 6.20902 12 7.50002C12.0001 8.27547 11.7998 9.03778 11.4186 9.71303C11.0373 10.3883 10.488 10.9535 9.824 11.354C9.602 11.488 9.544 11.654 9.55 11.74C9.677 13.674 10 18.692 10 19.497C10 20.1601 9.73661 20.7959 9.26777 21.2648C8.79893 21.7336 8.16304 21.997 7.5 21.997C6.83696 21.997 6.20107 21.7336 5.73223 21.2648C5.26339 20.7959 5 20.1601 5 19.497C5 18.692 5.323 13.674 5.45 11.74C5.455 11.653 5.398 11.488 5.176 11.354C4.51197 10.9535 3.9627 10.3883 3.58145 9.71303C3.20019 9.03778 2.9999 8.27547 3 7.50002C3 6.21002 3.109 4.70102 3.193 3.72602ZM9.5 7.25002C9.5 7.44893 9.42098 7.6397 9.28033 7.78035C9.13968 7.921 8.94891 8.00002 8.75 8.00002C8.55109 8.00002 8.36032 7.921 8.21967 7.78035C8.07902 7.6397 8 7.44893 8 7.25002V4.00002C8 3.86741 7.94732 3.74024 7.85355 3.64647C7.75979 3.5527 7.63261 3.50002 7.5 3.50002C7.36739 3.50002 7.24021 3.5527 7.14645 3.64647C7.05268 3.74024 7 3.86741 7 4.00002V7.25002C7 7.44893 6.92098 7.6397 6.78033 7.78035C6.63968 7.921 6.44891 8.00002 6.25 8.00002C6.05109 8.00002 5.86032 7.921 5.71967 7.78035C5.57902 7.6397 5.5 7.44893 5.5 7.25002V3.91502C5.5 3.80496 5.45628 3.6994 5.37845 3.62157C5.30062 3.54375 5.19506 3.50002 5.085 3.50002C4.98617 3.4983 4.89033 3.53389 4.81657 3.59968C4.7428 3.66547 4.69654 3.75664 4.687 3.85502C4.604 4.82002 4.5 6.27502 4.5 7.50002C4.5 8.59002 5.08 9.54402 5.952 10.07C6.497 10.4 6.999 11.03 6.947 11.838C6.817 13.818 6.5 18.756 6.5 19.498C6.5 19.7632 6.60536 20.0176 6.79289 20.2051C6.98043 20.3927 7.23478 20.498 7.5 20.498C7.76522 20.498 8.01957 20.3927 8.20711 20.2051C8.39464 20.0176 8.5 19.7632 8.5 19.498C8.5 18.756 8.183 13.818 8.053 11.838C8.001 11.03 8.503 10.4 9.048 10.07C9.49103 9.80314 9.85754 9.42626 10.112 8.97596C10.3664 8.52565 10.5 8.01723 10.5 7.50002C10.5 6.27602 10.396 4.82002 10.313 3.85502C10.3035 3.75664 10.2572 3.66547 10.1834 3.59968C10.1097 3.53389 10.0138 3.4983 9.915 3.50002C9.80493 3.50002 9.69938 3.54375 9.62155 3.62157C9.54372 3.6994 9.5 3.80496 9.5 3.91502V7.25002ZM13 7.75002C13 6.22503 13.6058 4.76249 14.6841 3.68416C15.7625 2.60582 17.225 2.00002 18.75 2.00002C18.9489 2.00002 19.1397 2.07904 19.2803 2.21969C19.421 2.36034 19.5 2.55111 19.5 2.75002V11.25C19.5 11.568 19.606 13.145 19.725 14.892L19.73 14.975C19.86 16.883 20 18.958 20 19.497C20 20.1601 19.7366 20.7959 19.2678 21.2648C18.7989 21.7336 18.163 21.997 17.5 21.997C16.837 21.997 16.2011 21.7336 15.7322 21.2648C15.2634 20.7959 15 20.1601 15 19.497C15 18.983 15.128 16.886 15.252 14.963C15.314 13.992 15.377 13.051 15.424 12.353L15.447 12H14.75C14.5202 12 14.2926 11.9548 14.0803 11.8668C13.868 11.7789 13.6751 11.65 13.5126 11.4875C13.3501 11.325 13.2212 11.132 13.1332 10.9197C13.0453 10.7074 13 10.4798 13 10.25V7.75002ZM16.998 11.302L16.977 11.616C16.8982 12.7639 16.8218 13.9119 16.748 15.06C16.622 17.02 16.5 19.046 16.5 19.497C16.5 19.7622 16.6054 20.0166 16.7929 20.2041C16.9804 20.3917 17.2348 20.497 17.5 20.497C17.7652 20.497 18.0196 20.3917 18.2071 20.2041C18.3946 20.0166 18.5 19.7622 18.5 19.497C18.5 19.017 18.362 16.971 18.228 14.993L18.221 14.889C18.108 13.23 18 11.627 18 11.25V3.56602C17.0184 3.742 16.13 4.25753 15.4902 5.02241C14.8503 5.78729 14.4998 6.75281 14.5 7.75002V10.25C14.5 10.388 14.612 10.5 14.75 10.5H16.25C16.3529 10.5 16.4546 10.5212 16.5489 10.5623C16.6432 10.6033 16.7281 10.6633 16.7983 10.7385C16.8684 10.8137 16.9224 10.9025 16.9567 10.9995C16.9911 11.0964 17.0051 11.1994 16.998 11.302Z" fill="black"/>
</svg>
