<svg width="24" height="24" viewBox="0 0 24 24" fill="none" xmlns="http://www.w3.org/2000/svg">
<path d="M6.20903 12.324H4.40103C3.82203 12.324 3.35303 12.794 3.35303 13.372V20.202C3.35303 20.78 3.82303 21.25 4.40103 21.25H6.21003C6.79003 21.25 7.25903 20.78 7.25903 20.201V13.372C7.25876 13.0939 7.14816 12.8272 6.95149 12.6305C6.75482 12.4339 6.48816 12.3233 6.21003 12.323M12.904 2.75H11.096C10.516 2.75 10.047 3.22 10.047 3.799V20.2C10.047 20.78 10.517 21.249 11.097 21.249H12.904C13.484 21.249 13.953 20.779 13.953 20.2V3.8C13.953 3.22 13.483 2.751 12.903 2.751M19.599 7.927H17.79C17.21 7.927 16.741 8.397 16.741 8.977V20.2C16.741 20.78 17.211 21.249 17.79 21.249H19.598C19.8762 21.2487 20.1428 21.1381 20.3395 20.9415C20.5362 20.7448 20.6468 20.4781 20.647 20.2V8.976C20.647 8.396 20.177 7.927 19.597 7.927" stroke="black" stroke-width="2" stroke-linecap="round" stroke-linejoin="round"/>
</svg>
