<svg width="24" height="24" viewBox="0 0 24 24" fill="none" xmlns="http://www.w3.org/2000/svg">
<path d="M9.56247 6.03152V17.9588C9.05547 17.6213 8.33622 17.4068 7.53222 17.4068C5.99622 17.4068 4.75122 18.1748 4.75122 19.1243C4.75122 20.0738 5.99622 20.8433 7.53222 20.8433C9.06822 20.8433 10.3132 20.0738 10.3132 19.1258V10.3388L18.5002 7.90877V15.0825C17.9917 14.745 17.274 14.5313 16.4692 14.5313C14.9332 14.5313 13.6882 15.3 13.6882 16.2503C13.6882 17.199 14.9332 17.9678 16.4692 17.9678C18.0052 17.9678 19.2502 17.199 19.2502 16.2503V3.15527L9.56247 6.03152Z" fill="black"/>
</svg>
