<svg width="24" height="24" viewBox="0 0 24 24" fill="none" xmlns="http://www.w3.org/2000/svg">
<path d="M20.943 16.835C20.3949 13.5635 18.8285 10.5484 16.467 8.219C15.95 7.716 15.692 7.465 15.121 7.233C14.55 7 14.059 7 13.078 7H10.922C9.94098 7 9.44998 7 8.87898 7.233C8.30898 7.465 8.04898 7.716 7.53298 8.219C5.17144 10.5484 3.60508 13.5635 3.05698 16.835C2.56998 19.773 5.27998 22 8.30798 22H15.692C18.721 22 21.432 19.773 20.942 16.835" stroke="black" stroke-width="2" stroke-linecap="round" stroke-linejoin="round"/>
<path d="M7.25694 4.443C7.04994 4.143 6.75094 3.735 7.36894 3.643C8.00394 3.547 8.66294 3.981 9.30894 3.973C9.89194 3.964 10.1889 3.705 10.5089 3.335C10.8449 2.946 11.3649 2 11.9999 2C12.6349 2 13.1549 2.946 13.4909 3.335C13.8109 3.705 14.1079 3.965 14.6909 3.972C15.3369 3.982 15.9959 3.547 16.6309 3.642C17.2489 3.735 16.9499 4.142 16.7429 4.442L15.8109 5.801C15.4109 6.381 15.2119 6.671 14.7939 6.836C14.3759 7.001 13.8369 7 12.7579 7H11.2419C10.1619 7 9.62294 7 9.20594 6.836C8.78894 6.672 8.58894 6.38 8.18894 5.8L7.25694 4.443Z" stroke="black" stroke-width="2" stroke-linejoin="round"/>
<path d="M13.6269 12.9189C13.4109 12.1199 12.3099 11.3999 10.9889 11.9389C9.66791 12.4779 9.45891 14.2109 11.4559 14.3959C12.3599 14.4789 12.9479 14.2989 13.4869 14.8079C14.0269 15.3159 14.1269 16.7309 12.7479 17.1119C11.3709 17.4929 10.0059 16.8979 9.85791 16.0519M11.8419 10.9919V11.7529M11.8419 17.2289V17.9929" stroke="black" stroke-width="2" stroke-linecap="round" stroke-linejoin="round"/>
</svg>
