<svg width="24" height="24" viewBox="0 0 24 24" fill="none" xmlns="http://www.w3.org/2000/svg">
<path d="M20.4024 2.25H14.6415C14.4624 2.24987 14.2905 2.32065 14.1634 2.44688L2.64619 13.9641C2.39401 14.2175 2.25244 14.5605 2.25244 14.918C2.25244 15.2755 2.39401 15.6185 2.64619 15.8719L8.13057 21.3563C8.38399 21.6084 8.72696 21.75 9.08448 21.75C9.44199 21.75 9.78496 21.6084 10.0384 21.3563L21.5509 9.84375C21.6771 9.71665 21.7479 9.54475 21.7478 9.36563V3.6C21.7486 3.42287 21.7144 3.24731 21.6472 3.08344C21.58 2.91957 21.481 2.77061 21.3559 2.64514C21.2309 2.51967 21.0823 2.42016 20.9187 2.35235C20.755 2.28453 20.5796 2.24975 20.4024 2.25Z" stroke="black" stroke-width="2" stroke-linecap="round" stroke-linejoin="round"/>
<path d="M18 7.5C17.7033 7.5 17.4133 7.41203 17.1666 7.24721C16.92 7.08238 16.7277 6.84811 16.6142 6.57403C16.5006 6.29994 16.4709 5.99834 16.5288 5.70737C16.5867 5.41639 16.7296 5.14912 16.9393 4.93934C17.1491 4.72956 17.4164 4.5867 17.7074 4.52882C17.9983 4.47094 18.2999 4.50065 18.574 4.61418C18.8481 4.72771 19.0824 4.91997 19.2472 5.16665C19.412 5.41332 19.5 5.70333 19.5 6C19.5 6.39783 19.342 6.77936 19.0607 7.06066C18.7794 7.34197 18.3978 7.5 18 7.5Z" fill="black"/>
</svg>
