<svg width="24" height="24" viewBox="0 0 24 24" fill="none" xmlns="http://www.w3.org/2000/svg">
<path d="M20 7H18.79C18.92 6.59 19 6.1 19 5.5C19 3.57 17.43 2 15.5 2C13.88 2 12.8 3.48 12.1 5.09C11.41 3.58 10.27 2 8.5 2C6.57 2 5 3.57 5 5.5C5 6.1 5.08 6.59 5.21 7H4C2.9 7 2 7.9 2 9V11C2 12.1 2.9 13 4 13V20C4 21.1 4.9 22 6 22H18C19.1 22 20 21.1 20 20V13C21.1 13 22 12.1 22 11V9C22 7.9 21.1 7 20 7ZM15.5 4C16.33 4 17 4.67 17 5.5C17 7 16.37 7 16 7H13.52C14.03 5.42 14.77 4 15.5 4ZM7 5.5C7 4.67 7.67 4 8.5 4C9.39 4 10.21 5.53 10.7 7H8C7.63 7 7 7 7 5.5ZM4 9H11V11H4V9ZM6 20V13H11V20H6ZM18 20H13V13H18V20ZM13 11V9.08C13 9.08 13.01 9.02 13.02 9H20V11H13Z" fill="black"/>
</svg>
