<svg width="24" height="24" viewBox="0 0 24 24" fill="none" xmlns="http://www.w3.org/2000/svg">
<path d="M21.45 8.60996L12.45 4.10996C12.3117 4.04125 12.1594 4.00549 12.005 4.00549C11.8506 4.00549 11.6983 4.04125 11.56 4.10996L5.56001 7.10996L2.56001 8.60996L1.56001 9.10996C1.3951 9.19306 1.25641 9.32021 1.15933 9.4773C1.06225 9.63439 1.01057 9.8153 1.01001 9.99996V16H3.01001V10.62L5.01001 11.62V15.45C5.01001 17.51 8.13001 20.01 12.01 20.01C15.89 20.01 19.01 17.52 19.01 15.45V11.62L21.46 10.4C21.8 10.23 22.01 9.87996 22.01 9.50996C22.01 9.13996 21.8 8.78996 21.46 8.61996L21.45 8.60996ZM6.45001 8.89996L12 6.11996L18.76 9.49996L12 12.88L5.24001 9.49996L6.45001 8.88996V8.89996ZM17 15.45C17 16.21 14.89 18.01 12 18.01C9.11001 18.01 7.00001 16.22 7.00001 15.45V12.62L11.55 14.9C11.69 14.97 11.84 15.01 12 15.01C12.16 15.01 12.31 14.97 12.45 14.9L17 12.62V15.45Z" fill="black"/>
</svg>
