<svg width="24" height="24" viewBox="0 0 24 24" fill="none" xmlns="http://www.w3.org/2000/svg">
<path d="M9.47407 8.99997C9.52907 8.99997 9.58307 8.99997 9.63707 8.98897C10.5811 8.86097 11.1701 7.64297 10.9571 6.26697C10.7541 4.96997 9.91007 3.99997 9.02507 3.99997C8.97007 3.99997 8.91607 3.99997 8.86207 4.01097C7.91807 4.13897 7.32907 5.35697 7.54207 6.73297C7.74607 8.02597 8.59007 8.99997 9.47507 8.99997M14.7001 13.5C13.6001 11.5 13.2591 11 12.0001 11C10.7411 11 10.2641 11.755 9.16407 13.747C8.22207 15.45 6.31807 15.592 5.84307 17.038C5.74607 17.303 5.69807 17.715 5.70007 18C5.70007 19.176 6.48707 20 7.50007 20C8.75907 20 10.5001 19 12.0001 19C13.5001 19 15.2411 20 16.5001 20C17.5131 20 18.3001 19.177 18.3001 18C18.3001 17.715 18.2511 17.303 18.1541 17.038C17.6791 15.587 15.6421 15.203 14.7001 13.5ZM20.1881 8.08197C20.0599 8.0266 19.9216 7.99867 19.7821 7.99997H19.7671C19.0321 8.01197 18.2071 8.74997 17.7741 9.86597C17.2551 11.201 17.4941 12.566 18.3121 12.918C18.4427 12.9726 18.5781 13 18.7181 13C19.4571 13 20.2931 12.258 20.7291 11.134C21.2451 9.79897 21.0011 8.43397 20.1881 8.08197ZM16.4561 6.73297C16.6701 5.35697 16.0811 4.13897 15.1361 4.01097C15.0825 4.00292 15.0283 3.99924 14.9741 3.99997C14.0891 3.99997 13.2461 4.96997 13.0441 6.26697C12.8301 7.64297 13.4191 8.86097 14.3641 8.98897C14.4181 8.99564 14.4721 8.9993 14.5261 8.99997C15.4111 8.99997 16.2561 8.02597 16.4561 6.73297ZM5.69007 12.918C6.50607 12.566 6.74407 11.199 6.22607 9.86597C5.79007 8.74197 4.95507 7.99997 4.21707 7.99997C4.0764 7.99997 3.94073 8.0273 3.81007 8.08197C2.99407 8.43397 2.75607 9.80097 3.27407 11.134C3.71007 12.258 4.54507 13 5.28307 13C5.42373 13 5.5594 12.9726 5.69007 12.918Z" stroke="black" stroke-width="2" stroke-linecap="round" stroke-linejoin="round"/>
</svg>
