<svg width="24" height="24" viewBox="0 0 24 24" fill="none" xmlns="http://www.w3.org/2000/svg">
<path d="M12 3.00004L12.394 2.08003C12.2695 2.02667 12.1355 1.99915 12 1.99915C11.8645 1.99915 11.7305 2.02667 11.606 2.08003L12 3.00004ZM12 21L11.504 21.868C11.6551 21.9543 11.826 21.9997 12 21.9997C12.174 21.9997 12.3449 21.9543 12.496 21.868L12 21ZM11.606 2.08104L5.212 4.82004L6 6.66004L12.394 3.92004L11.606 2.08104ZM4 6.65903V13.519H6V6.65903H4ZM7.527 19.596L11.504 21.868L12.496 20.132L8.519 17.859L7.527 19.596ZM12.496 21.868L16.473 19.596L15.481 17.859L11.504 20.132L12.496 21.868ZM20 13.518V6.66004H18V13.52L20 13.518ZM18.788 4.82104L12.394 2.08104L11.606 3.91903L18 6.66004L18.788 4.82104ZM20 6.66004C20 6.26869 19.8851 5.88596 19.6697 5.55925C19.4542 5.23255 19.1477 4.97522 18.788 4.82104L18 6.66004H20ZM16.473 19.596C17.5446 18.9837 18.4353 18.0998 19.0547 17.0323C19.6741 15.9647 20.0002 14.7523 20 13.518H18C17.9999 14.3995 17.7667 15.2653 17.3242 16.0277C16.8816 16.79 16.2454 17.4218 15.48 17.859L16.473 19.596ZM4 13.518C3.99994 14.7521 4.32615 15.9643 4.94554 17.0317C5.56494 18.0991 6.45551 18.9838 7.527 19.596L8.519 17.859C7.75406 17.4219 7.11823 16.7903 6.67587 16.0284C6.23352 15.2664 6.00036 14.4011 6 13.52L4 13.518ZM5.212 4.82004C4.85216 4.97429 4.5455 5.23177 4.33005 5.55867C4.11461 5.88557 3.99985 6.26852 4 6.66004H6L5.212 4.82004Z" fill="black"/>
<path d="M15 10L11 14L9 12" stroke="black" stroke-width="2" stroke-linecap="round" stroke-linejoin="round"/>
</svg>
