<svg width="24" height="24" viewBox="0 0 24 24" fill="none" xmlns="http://www.w3.org/2000/svg">
<g clip-path="url(#clip0_1377_1539)">
<path d="M14.3161 9.09771C14.1776 8.70815 13.9221 8.37092 13.5845 8.13218C13.247 7.89343 12.8439 7.76484 12.4304 7.764H10.8824C10.4408 7.76169 10.014 7.92321 9.68456 8.21735C9.35512 8.51148 9.14645 8.91732 9.0989 9.35639C9.05134 9.79546 9.16829 10.2366 9.42711 10.5944C9.68594 10.9523 10.0683 11.2014 10.5001 11.2937L12.8573 11.808C13.3393 11.9135 13.7653 12.1934 14.0534 12.5939C14.3415 12.9944 14.4715 13.4873 14.4184 13.9778C14.3652 14.4683 14.1327 14.9219 13.7654 15.2514C13.3982 15.5809 12.9221 15.763 12.4287 15.7629H11.0967C10.2259 15.7629 9.48529 15.2074 9.21101 14.4309M11.7636 7.764V5.76343M11.7636 17.7634V15.7646M3.42529 23.1411V18.8554H7.71101" stroke="black" stroke-width="2" stroke-linecap="round" stroke-linejoin="round"/>
<path d="M22.9509 9.94974C23.406 12.3758 23.0427 14.8843 21.9179 17.0816C20.7931 19.2788 18.9706 21.0404 16.7364 22.0898C14.5022 23.1393 11.9828 23.4171 9.57359 22.8798C7.16438 22.3425 5.00177 21.0205 3.42519 19.1212M1.04919 14.0503C0.594093 11.6242 0.957439 9.11571 2.0822 6.91847C3.20697 4.72123 5.02948 2.95965 7.26368 1.91022C9.49788 0.860791 12.0173 0.58292 14.4265 1.12022C16.8357 1.65752 18.9983 2.97958 20.5749 4.87889" stroke="black" stroke-width="2" stroke-linecap="round" stroke-linejoin="round"/>
<path d="M20.575 0.860596V5.14631H16.2893" stroke="black" stroke-width="2" stroke-linecap="round" stroke-linejoin="round"/>
</g>
<defs>
<clipPath id="clip0_1377_1539">
<rect width="24" height="24" fill="white"/>
</clipPath>
</defs>
</svg>
