<svg width="24" height="24" viewBox="0 0 24 24" fill="none" xmlns="http://www.w3.org/2000/svg">
<path d="M19.7451 13C20.4473 11.9905 20.8712 10.8139 20.9742 9.58853C21.0772 8.36316 20.8555 7.13229 20.3315 6.01982C19.8076 4.90734 18.9998 3.95252 17.9895 3.25146C16.9793 2.55041 15.8021 2.12785 14.5767 2.02634C13.3512 1.92482 12.1206 2.14793 11.0087 2.67319C9.89684 3.19846 8.94297 4.00736 8.2431 5.01845C7.54324 6.02955 7.12207 7.20718 7.022 8.43279C6.92193 9.6584 7.14648 10.8887 7.67306 12" stroke="black" stroke-width="1.5" stroke-linecap="round" stroke-linejoin="round"/>
<path d="M14 6C12.895 6 12 6.672 12 7.5C12 8.328 12.895 9 14 9C15.105 9 16 9.672 16 10.5C16 11.328 15.105 12 14 12M14 6C14.87 6 15.612 6.417 15.886 7M14 6V5M14 12C13.13 12 12.388 11.583 12.114 11M14 12V13" stroke="black" stroke-width="1.5" stroke-linecap="round"/>
<path d="M3 14H5.395C5.689 14 5.979 14.066 6.242 14.194L8.284 15.182C8.547 15.309 8.837 15.375 9.132 15.375H10.174C11.182 15.375 12 16.166 12 17.142C12 17.182 11.973 17.216 11.934 17.227L9.393 17.93C8.93705 18.056 8.45087 18.0119 8.025 17.806L5.842 16.75M12 16.5L16.593 15.089C16.9929 14.9663 17.4213 14.9731 17.817 15.1083C18.2128 15.2435 18.5558 15.5003 18.797 15.842C19.166 16.352 19.016 17.084 18.478 17.394L10.963 21.731C10.728 21.867 10.4678 21.9537 10.1982 21.9858C9.92866 22.018 9.65537 21.9949 9.395 21.918L3 20.02" stroke="black" stroke-width="1.5" stroke-linecap="round" stroke-linejoin="round"/>
</svg>
